<?xml version="1.0" encoding="iso-8859-1"?>
<!-- Generator: Adobe Illustrator 19.0.0, SVG Export Plug-In . SVG Version: 6.00 Build 0)  -->
<svg version="1.1" id="Layer_1" xmlns="http://www.w3.org/2000/svg" xmlns:xlink="http://www.w3.org/1999/xlink" x="0px" y="0px"
	 viewBox="0 0 512 512" style="enable-background:new 0 0 512 512;" xml:space="preserve">
<path style="fill:#FFCE54;" d="M366.373,338.333c5.75-13.969,8.969-29.266,8.969-45.312c0-65.915-53.438-119.346-119.338-119.346
	c-65.907,0-119.337,53.431-119.337,119.346c0,16.047,3.219,31.344,8.969,45.312H366.373z"/>
<path d="M501.344,325.333H380.186c2.625-10.219,4.031-20.938,4.031-32c0-70.813-57.407-128.221-128.213-128.221
	c-70.813,0-128.221,57.407-128.221,128.221c0,11.062,1.406,21.781,4.039,32H10.665C4.773,325.333,0,330.114,0,336.005
	s4.773,10.672,10.665,10.672h490.679c5.875,0,10.656-4.781,10.656-10.672S507.219,325.333,501.344,325.333z M149.112,293.333
	c0-28.547,11.125-55.392,31.313-75.58s47.032-31.305,75.579-31.305c28.556,0,55.399,11.117,75.587,31.305
	c20.188,20.188,31.313,47.033,31.313,75.58c0,11.031-1.688,21.781-4.875,32h-204.05
	C150.784,315.114,149.112,304.364,149.112,293.333z"/>
<path d="M32.001,304.005L32.001,304.005L32.001,304.005h64.001c5.891,0,10.664-4.766,10.664-10.672
	c0-5.875-4.773-10.656-10.664-10.656l0,0H32.001l0,0c-5.891,0-10.665,4.781-10.665,10.656
	C21.336,299.239,26.11,304.005,32.001,304.005z"/>
<path d="M415.999,282.677L415.999,282.677c-5.875,0-10.656,4.781-10.656,10.656c0,5.906,4.781,10.672,10.656,10.672c0,0,0,0,0.031,0
	H480l0,0l0,0c5.906,0,10.656-4.766,10.656-10.672c0-5.875-4.75-10.656-10.656-10.656c0,0,0,0-0.031,0H415.999z"/>
<path d="M376.686,187.745v-0.008l45.251-45.25l0,0l0,0c4.156-4.165,4.156-10.922,0-15.086c-4.156-4.164-10.906-4.164-15.094,0v0.023
	l-45.251,45.228v0.008c-4.156,4.164-4.156,10.914,0,15.086C365.748,191.909,372.529,191.909,376.686,187.745z"/>
<path d="M245.34,133.338c0,5.891,4.773,10.665,10.664,10.665c5.891,0,10.664-4.774,10.664-10.665l0,0l0,0V69.337l0,0
	c0-5.891-4.773-10.672-10.664-10.672s-10.672,4.781-10.664,10.672v0.023V133.338L245.34,133.338L245.34,133.338L245.34,133.338
	L245.34,133.338z"/>
<path d="M90.088,142.502l45.234,45.243l0,0c4.165,4.164,10.922,4.164,15.086,0c4.165-4.164,4.165-10.922,0-15.086l-0.008-0.008
	L105.15,127.4l0,0l0,0c-4.164-4.164-10.914-4.164-15.086,0c-4.165,4.164-4.165,10.922,0,15.086L90.088,142.502z"/>
<path style="fill:#FC6E51;" d="M271.09,412.507h-0.008l-4.414,4.422v-38.251l0,0l0,0c0-5.906-4.773-10.672-10.664-10.672
	s-10.672,4.766-10.672,10.672c0,0,0.008,0,0.008,0.031v38.22l-4.422-4.422l0,0l0,0c-4.164-4.172-10.922-4.172-15.086,0
	s-4.164,10.922,0,15.078c0.008,0.016,0.016,0.016,0.016,0.016l22.609,22.609l0,0c1.938,1.938,4.602,3.125,7.547,3.125
	c2.945,0,5.609-1.188,7.539-3.125l0,0l22.642-22.625l0,0l0,0c4.156-4.156,4.156-10.906,0-15.078
	C282.013,408.335,275.247,408.335,271.09,412.507z"/>
<g>
</g>
<g>
</g>
<g>
</g>
<g>
</g>
<g>
</g>
<g>
</g>
<g>
</g>
<g>
</g>
<g>
</g>
<g>
</g>
<g>
</g>
<g>
</g>
<g>
</g>
<g>
</g>
<g>
</g>
</svg>
