<?xml version="1.0" encoding="iso-8859-1"?>
<!-- Generator: Adobe Illustrator 19.0.0, SVG Export Plug-In . SVG Version: 6.00 Build 0)  -->
<svg version="1.1" id="Layer_1" xmlns="http://www.w3.org/2000/svg" xmlns:xlink="http://www.w3.org/1999/xlink" x="0px" y="0px"
	 viewBox="0 0 511.999 511.999" style="enable-background:new 0 0 511.999 511.999;" xml:space="preserve">
<g>
	<g>
		<path d="M266.668,42.891V10.664C266.668,4.773,261.895,0,256.004,0S245.34,4.773,245.34,10.664v32.227
			C108.901,48.484,0.004,160.852,0.004,298.672v2.312c18.281-23.25,46.656-38.156,78.508-38.156
			c38.641,0,72.148,21.938,88.75,54.062c15.047-29.125,44-49.875,78.078-53.5v195.281c0,29.453,23.875,53.328,53.328,53.328
			s53.328-23.875,53.328-53.328c0-5.906-4.766-10.672-10.656-10.672s-10.672,4.766-10.672,10.672c0,17.641-14.359,32-32,32
			s-32-14.359-32-32v-195.28c34.078,3.625,63.031,24.375,78.078,53.5c16.594-32.125,50.109-54.062,88.75-54.062
			c31.859,0,60.219,14.906,78.5,38.156v-2.312C511.996,160.852,403.105,48.484,266.668,42.891z M433.496,241.492
			c-22.656,0-44.75,6.297-63.906,18.203c-9.188,5.711-17.531,12.602-24.844,20.461c-7.312-7.859-15.656-14.75-24.844-20.461
			c-19.156-11.906-41.25-18.203-63.898-18.203s-44.742,6.297-63.898,18.203c-9.195,5.711-17.539,12.602-24.844,20.461
			c-7.305-7.859-15.656-14.75-24.844-20.461c-19.156-11.906-41.258-18.203-63.906-18.203c-18.539,0-36.32,4.078-52.875,12.117
			c3.078-15.836,7.797-31.297,14.133-46.281c11.82-27.938,28.742-53.039,50.297-74.594c21.562-21.562,46.656-38.484,74.602-50.305
			C193.582,70.203,224.315,64,256.004,64c31.68,0,62.43,6.203,91.336,18.43c27.938,11.82,53.031,28.742,74.594,50.305
			c21.562,21.555,38.484,46.656,50.312,74.594c6.328,14.984,11.047,30.445,14.125,46.281
			C469.809,245.57,452.027,241.492,433.496,241.492z"/>
	</g>
</g>
<g>
</g>
<g>
</g>
<g>
</g>
<g>
</g>
<g>
</g>
<g>
</g>
<g>
</g>
<g>
</g>
<g>
</g>
<g>
</g>
<g>
</g>
<g>
</g>
<g>
</g>
<g>
</g>
<g>
</g>
</svg>
