<?xml version="1.0" encoding="iso-8859-1"?>
<!-- Generator: Adobe Illustrator 19.0.0, SVG Export Plug-In . SVG Version: 6.00 Build 0)  -->
<svg version="1.1" id="Layer_1" xmlns="http://www.w3.org/2000/svg" xmlns:xlink="http://www.w3.org/1999/xlink" x="0px" y="0px"
	 viewBox="0 0 511.992 511.992" style="enable-background:new 0 0 511.992 511.992;" xml:space="preserve">
<path style="fill:#9099A3;" d="M10.664,256.004h351.984v-0.016c47.125,0,85.344-38.203,85.344-85.336s-38.219-85.336-85.344-85.336
	s-85.344,38.203-85.344,85.336v0.023h0.031l0,0c0,5.891,4.781,10.664,10.656,10.664c5.906,0,10.672-4.773,10.672-10.664
	c0-0.148-0.016-0.289-0.016-0.438c0.219-35.102,28.844-63.594,64-63.594c35.281,0,64,28.711,64,64.008c0,35.289-28.719,64-64,64
	v0.023H10.664C4.773,234.674,0,239.447,0,245.338S4.773,256.004,10.664,256.004z"/>
<path style="fill:#CCD1D9;" d="M309.305,319.988L309.305,319.988H10.664C4.773,319.988,0,324.769,0,330.644
	c0,5.906,4.773,10.688,10.664,10.688h298.641v-0.016c17.656,0,32.031,14.359,32.031,32.016s-14.375,32.031-32.031,32.031
	c-17.5,0-31.75-14.125-32-31.562c0-0.156,0.031-0.312,0.031-0.469c0-5.875-4.781-10.656-10.672-10.656S256,367.457,256,373.332
	h-0.031c0,29.469,23.883,53.344,53.336,53.344c29.469,0,53.359-23.875,53.359-53.344S338.773,319.988,309.305,319.988z"/>
<path style="fill:#AAB2BC;" d="M447.992,277.332H10.664C4.773,277.332,0,282.113,0,288.004s4.773,10.672,10.664,10.672h437.328
	c23.531,0,42.672,19.141,42.672,42.672s-19.141,42.672-42.672,42.672c-23.469,0-42.547-19.016-42.672-42.438
	c0-0.094,0.016-0.156,0.016-0.25c0-5.875-4.781-10.656-10.672-10.656s-10.672,4.781-10.672,10.656v0.016l0,0
	c0,35.359,28.656,64.016,64,64.016s64-28.656,64-64.016S483.336,277.332,447.992,277.332z"/>
<g>
</g>
<g>
</g>
<g>
</g>
<g>
</g>
<g>
</g>
<g>
</g>
<g>
</g>
<g>
</g>
<g>
</g>
<g>
</g>
<g>
</g>
<g>
</g>
<g>
</g>
<g>
</g>
<g>
</g>
</svg>
