<svg id="Layer_1" data-name="Layer 1" xmlns="http://www.w3.org/2000/svg" viewBox="0 0 1390.77 127.11"><defs><style>.cls-1{fill:#66c;stroke:#1e2227;stroke-miterlimit:10;}</style></defs><title>back</title><polyline class="cls-1" points="10.88 4.5 447.88 4.5 1044.88 4.5 1389.88 4.5"/><polyline class="cls-1" points="10.38 0.5 447.38 0.5 1044.38 0.5 1389.38 0.5"/><polyline class="cls-1" points="11.06 12.72 448.06 12.72 1045.06 12.72 1390.06 12.72"/><polyline class="cls-1" points="10.56 8.72 447.56 8.72 1044.56 8.72 1389.56 8.72"/><polyline class="cls-1" points="11.58 21.01 448.58 21.01 1045.58 21.01 1390.58 21.01"/><polyline class="cls-1" points="11.08 17.01 448.08 17.01 1045.08 17.01 1390.08 17.01"/><polyline class="cls-1" points="11.77 29.23 448.77 29.23 1045.77 29.23 1390.77 29.23"/><polyline class="cls-1" points="11.27 25.23 448.27 25.23 1045.27 25.23 1390.27 25.23"/><polyline class="cls-1" points="4.23 36.75 441.23 36.75 1038.23 36.75 1383.23 36.75"/><polyline class="cls-1" points="3.73 32.75 440.73 32.75 1037.73 32.75 1382.73 32.75"/><polyline class="cls-1" points="4.41 44.98 441.41 44.98 1038.41 44.98 1383.41 44.98"/><polyline class="cls-1" points="3.91 40.98 440.91 40.98 1037.91 40.98 1382.91 40.98"/><polyline class="cls-1" points="4.94 53.26 441.94 53.26 1038.94 53.26 1383.94 53.26"/><polyline class="cls-1" points="4.44 49.26 441.44 49.26 1038.44 49.26 1383.44 49.26"/><polyline class="cls-1" points="5.12 61.49 442.12 61.49 1039.12 61.49 1384.12 61.49"/><polyline class="cls-1" points="4.62 57.49 441.62 57.49 1038.62 57.49 1383.62 57.49"/><polyline class="cls-1" points="7.15 69.63 444.15 69.63 1041.15 69.63 1386.15 69.63"/><polyline class="cls-1" points="6.65 65.63 443.65 65.63 1040.65 65.63 1385.65 65.63"/><polyline class="cls-1" points="7.33 77.85 444.33 77.85 1041.33 77.85 1386.33 77.85"/><polyline class="cls-1" points="6.83 73.85 443.83 73.85 1040.83 73.85 1385.83 73.85"/><polyline class="cls-1" points="7.85 86.14 444.85 86.14 1041.85 86.14 1386.85 86.14"/><polyline class="cls-1" points="7.35 82.14 444.35 82.14 1041.35 82.14 1386.35 82.14"/><polyline class="cls-1" points="8.04 94.36 445.04 94.36 1042.04 94.36 1387.04 94.36"/><polyline class="cls-1" points="7.54 90.36 444.54 90.36 1041.54 90.36 1386.54 90.36"/><polyline class="cls-1" points="0.5 101.88 437.5 101.88 1034.5 101.88 1379.5 101.88"/><polyline class="cls-1" points="0 97.88 437 97.88 1034 97.88 1379 97.88"/><polyline class="cls-1" points="0.68 110.11 437.68 110.11 1034.68 110.11 1379.68 110.11"/><polyline class="cls-1" points="0.18 106.11 437.18 106.11 1034.18 106.11 1379.18 106.11"/><polyline class="cls-1" points="1.21 118.39 438.21 118.39 1035.21 118.39 1380.21 118.39"/><polyline class="cls-1" points="0.71 114.39 437.71 114.39 1034.71 114.39 1379.71 114.39"/><polyline class="cls-1" points="1.39 126.61 438.39 126.61 1035.39 126.61 1380.39 126.61"/><polyline class="cls-1" points="0.89 122.61 437.89 122.61 1034.89 122.61 1379.89 122.61"/></svg>